Disc Title:     Cloudy With A Chance Of Meatballs - Blu-ray™
Disc Label:     Wolkig.mit.Aussicht.auf.Fleischbällchen.2009.BluRay.German.Complete.Untouched-HQM
Disc Size:      39,919,552,750 bytes
Protection:     AACS
Extras:         BD-Java
BDInfo:         0.7.5.5

Notes:          

BDINFO HOME:
  Cinema Squid (old)
    http://www.cinemasquid.com/blu-ray/tools/bdinfo
  UniqProject GitHub (new)
   https://github.com/UniqProject/BDInfo

INCLUDES FORUMS REPORT FOR:
  AVS Forum Blu-ray Audio and Video Specifications Thread
    http://www.avsforum.com/avs-vb/showthread.php?t=1155731


********************
PLAYLIST: 00001.MPLS
********************

<--- BEGIN FORUMS PASTE --->
[code]
                                                                                                                Total   Video                                             
Title                                                           Codec   Length  Movie Size      Disc Size       Bitrate Bitrate Main Audio Track                          Secondary Audio Track
-----                                                           ------  ------- --------------  --------------  ------- ------- ------------------                        ---------------------
00001.MPLS                                                      AVC     1:29:53 29,086,236,672  39,919,552,750  43.14   27.83   DTS-HD Master 5.1 2973Kbps (48kHz/24-bit) 
[/code]

[code]

DISC INFO:

Disc Title:     Cloudy With A Chance Of Meatballs - Blu-ray™
Disc Label:     Wolkig.mit.Aussicht.auf.Fleischbällchen.2009.BluRay.German.Complete.Untouched-HQM
Disc Size:      39,919,552,750 bytes
Protection:     AACS
Extras:         BD-Java
BDInfo:         0.7.5.5

PLAYLIST REPORT:

Name:                   00001.MPLS
Length:                 1:29:53.387 (h:m:s.ms)
Size:                   29,086,236,672 bytes
Total Bitrate:          43.14 Mbps

Angle 1 Length:         0:04:52.125 (h:m:s.ms) / 1:29:53.387 (h:m:s.ms)
Angle 1 Size:           1,564,612,608 bytes / 29,086,316,544 bytes
Angle 1 Total Bitrate:  42.85 Mbps / 43.14 Mbps

All Angles Length:      1:34:45.513 (h:m:s.ms)
All Angles Size:        30,650,849,280 bytes
All Angles Bitrate:     43.13 Mbps

(*) Indicates included stream hidden by this playlist.

VIDEO:

Codec                   Bitrate             Description     
-----                   -------             -----------     
MPEG-4 AVC Video        27834 kbps          1080p / 23.976 fps / 16:9 / High Profile 4.1
MPEG-4 AVC Video (1)    1503 (27755) kbps   1080p / 23.976 fps / 16:9 / High Profile 4.1

AUDIO:

Codec                           Language        Bitrate         Description     
-----                           --------        -------         -----------     
DTS-HD Master Audio             English         2973 kbps       5.1 / 48 kHz /  2973 kbps / 24-bit (DTS Core: 5.1 / 48 kHz /  1509 kbps / 24-bit)
DTS-HD Master Audio             German          3008 kbps       5.1 / 48 kHz /  3008 kbps / 24-bit (DTS Core: 5.1 / 48 kHz /  1509 kbps / 24-bit)
Dolby Digital Audio             Portuguese      640 kbps        5.1 / 48 kHz /   640 kbps / DN -31dB
Dolby Digital Audio             Croatian        640 kbps        5.1 / 48 kHz /   640 kbps / DN -31dB
Dolby Digital Audio             Danish          640 kbps        5.1 / 48 kHz /   640 kbps / DN -31dB
Dolby Digital Audio             Finnish         640 kbps        5.1 / 48 kHz /   640 kbps / DN -31dB
Dolby Digital Audio             Icelandic       640 kbps        5.1 / 48 kHz /   640 kbps / DN -31dB
Dolby Digital Audio             Norwegian       640 kbps        5.1 / 48 kHz /   640 kbps / DN -31dB
Dolby Digital Audio             Slovenian       640 kbps        5.1 / 48 kHz /   640 kbps / DN -31dB
Dolby Digital Audio             Swedish         640 kbps        5.1 / 48 kHz /   640 kbps / DN -31dB
Dolby Digital Audio             Turkish         640 kbps        5.1 / 48 kHz /   640 kbps / DN -31dB
Dolby Digital Audio             English         192 kbps        2.0 / 48 kHz /   192 kbps / DN -31dB / Dolby Surround

SUBTITLES:

Codec                           Language        Bitrate         Description     
-----                           --------        -------         -----------     
Presentation Graphics           English         30.002 kbps                     
* Presentation Graphics         English         30.017 kbps                     
Presentation Graphics           German          35.795 kbps                     
Presentation Graphics           Portuguese      31.102 kbps                     
Presentation Graphics           Croatian        27.909 kbps                     
Presentation Graphics           Danish          28.552 kbps                     
Presentation Graphics           Finnish         27.870 kbps                     
Presentation Graphics           Icelandic       28.977 kbps                     
Presentation Graphics           Norwegian       29.529 kbps                     
Presentation Graphics           Serbian         29.192 kbps                     
Presentation Graphics           Slovenian       24.806 kbps                     
Presentation Graphics           Swedish         27.757 kbps                     
Presentation Graphics           Turkish         31.745 kbps                     
Presentation Graphics           English         65.611 kbps                     
Presentation Graphics           German          67.359 kbps                     

FILES:

Name            Time In         Length          Size            Total Bitrate   
----            -------         ------          ----            -------------   
00126.M2TS      0:00:00.000     0:04:52.125     1,564,532,736   42,846          
00127.M2TS (1)  0:00:00.000     0:04:52.125     1,564,612,608   42,848          
00128.M2TS      0:04:52.125     1:25:01.262     27,521,703,936  43,161          

CHAPTERS:

Number          Time In         Length          Avg Video Rate  Max 1-Sec Rate  Max 1-Sec Time  Max 5-Sec Rate  Max 5-Sec Time  Max 10Sec Rate  Max 10Sec Time  Avg Frame Size  Max Frame Size  Max Frame Time  
------          -------         ------          --------------  --------------  --------------  --------------  --------------  --------------  --------------  --------------  --------------  --------------  
1               0:00:00.000     0:04:47.620     27,749 kbps     43,769 kbps     00:00:35.326    30,692 kbps     00:00:24.816    29,150 kbps     00:02:56.759    144,651 bytes   778,689 bytes   00:00:17.976    
2               0:04:47.620     0:04:08.957     27,851 kbps     43,501 kbps     00:04:48.705    31,964 kbps     00:05:45.136    30,024 kbps     00:05:40.048    145,205 bytes   736,397 bytes   00:05:26.868    
3               0:08:56.577     0:05:36.586     27,816 kbps     40,550 kbps     00:09:25.940    30,897 kbps     00:09:21.936    29,405 kbps     00:13:39.610    145,020 bytes   732,030 bytes   00:10:37.678    
4               0:14:33.163     0:05:57.065     28,041 kbps     41,637 kbps     00:15:45.027    30,798 kbps     00:15:45.027    30,188 kbps     00:15:39.855    146,193 bytes   751,776 bytes   00:20:09.166    
5               0:20:30.228     0:03:55.360     27,871 kbps     36,668 kbps     00:23:57.686    30,197 kbps     00:23:53.640    29,186 kbps     00:23:53.431    145,309 bytes   724,344 bytes   00:21:54.604    
6               0:24:25.589     0:06:17.585     27,801 kbps     39,469 kbps     00:26:20.578    31,190 kbps     00:26:26.418    30,457 kbps     00:26:27.752    144,940 bytes   782,567 bytes   00:26:30.297    
7               0:30:43.174     0:05:46.429     27,959 kbps     45,139 kbps     00:33:53.448    32,014 kbps     00:32:59.727    30,074 kbps     00:31:15.164    145,767 bytes   738,865 bytes   00:33:25.169    
8               0:36:29.604     0:06:20.505     27,975 kbps     40,023 kbps     00:40:08.989    31,997 kbps     00:37:34.293    30,413 kbps     00:37:34.043    145,846 bytes   719,326 bytes   00:42:36.470    
9               0:42:50.109     0:03:46.684     27,853 kbps     37,581 kbps     00:43:16.885    29,993 kbps     00:43:50.794    29,224 kbps     00:43:16.885    145,212 bytes   737,695 bytes   00:45:27.433    
10              0:46:36.793     0:06:07.033     27,831 kbps     41,328 kbps     00:49:04.941    31,824 kbps     00:52:13.755    29,755 kbps     00:48:04.339    145,099 bytes   719,329 bytes   00:47:47.781    
11              0:52:43.827     0:02:23.601     27,705 kbps     37,763 kbps     00:54:19.756    29,841 kbps     00:53:49.893    28,778 kbps     00:53:37.130    144,442 bytes   729,142 bytes   00:54:51.329    
12              0:55:07.429     0:05:35.335     27,841 kbps     40,464 kbps     00:57:08.133    30,731 kbps     00:57:47.338    29,160 kbps     00:57:46.796    145,151 bytes   764,925 bytes   00:57:31.322    
13              1:00:42.764     0:05:00.633     27,922 kbps     37,630 kbps     01:04:30.783    30,956 kbps     01:02:42.425    29,959 kbps     01:02:42.425    145,573 bytes   745,737 bytes   01:04:37.707    
14              1:05:43.397     0:07:20.356     27,791 kbps     41,009 kbps     01:07:56.572    30,999 kbps     01:12:58.749    29,608 kbps     01:09:49.143    144,890 bytes   773,100 bytes   01:06:29.151    
15              1:13:03.754     0:04:41.614     27,790 kbps     51,744 kbps     01:17:01.783    31,026 kbps     01:17:01.783    29,770 kbps     01:17:11.668    144,882 bytes   667,944 bytes   01:14:48.317    
16              1:17:45.369     0:12:08.018     27,665 kbps     47,685 kbps     01:23:32.590    33,744 kbps     01:23:23.665    31,406 kbps     01:21:10.991    144,240 bytes   782,376 bytes   01:17:54.002    

STREAM DIAGNOSTICS:

File            PID             Type            Codec           Language                Seconds                 Bitrate                 Bytes           Packets         
----            ---             ----            -----           --------                --------------          --------------          -------------   -----           
00126.M2TS      4113 (0x1011)   0x1B            AVC                                     292.000                 27,749                  1,012,835,872   5,508,683       
00126.M2TS      4352 (0x1100)   0x86            DTS-HD MA       eng (English)           292.000                 2,828                   103,220,860     606,242         
00126.M2TS      4353 (0x1101)   0x86            DTS-HD MA       deu (German)            292.000                 2,885                   105,292,488     617,546         
00126.M2TS      4354 (0x1102)   0x81            AC3             por (Portuguese)        292.000                 640                     23,370,240      136,935         
00126.M2TS      4355 (0x1103)   0x81            AC3             hrv (Croatian)          292.000                 640                     23,370,240      136,935         
00126.M2TS      4356 (0x1104)   0x81            AC3             dan (Danish)            292.000                 640                     23,370,240      136,935         
00126.M2TS      4357 (0x1105)   0x81            AC3             fin (Finnish)           292.000                 640                     23,370,240      136,935         
00126.M2TS      4358 (0x1106)   0x81            AC3             isl (Icelandic)         292.000                 640                     23,370,240      136,935         
00126.M2TS      4359 (0x1107)   0x81            AC3             nor (Norwegian)         292.000                 640                     23,370,240      136,935         
00126.M2TS      4360 (0x1108)   0x81            AC3             slv (Slovenian)         292.000                 640                     23,370,240      136,935         
00126.M2TS      4361 (0x1109)   0x81            AC3             swe (Swedish)           292.000                 640                     23,370,240      136,935         
00126.M2TS      4362 (0x110A)   0x81            AC3             tur (Turkish)           292.000                 640                     23,370,240      136,935         
00126.M2TS      4363 (0x110B)   0x81            AC3             eng (English)           292.000                 192                     7,011,072       45,645          
00126.M2TS      4608 (0x1200)   0x90            PGS             eng (English)           292.000                 32                      1,162,946       6,683           
00126.M2TS      4609 (0x1201)   0x90            PGS             eng (English)           292.000                 32                      1,163,923       6,688           
00126.M2TS      4610 (0x1202)   0x90            PGS             deu (German)            292.000                 41                      1,509,360       8,609           
00126.M2TS      4611 (0x1203)   0x90            PGS             por (Portuguese)        292.000                 40                      1,444,323       8,253           
00126.M2TS      4612 (0x1204)   0x90            PGS             hrv (Croatian)          292.000                 34                      1,257,557       7,231           
00126.M2TS      4613 (0x1205)   0x90            PGS             dan (Danish)            292.000                 35                      1,263,863       7,227           
00126.M2TS      4614 (0x1206)   0x90            PGS             fin (Finnish)           292.000                 34                      1,224,420       7,025           
00126.M2TS      4615 (0x1207)   0x90            PGS             isl (Icelandic)         292.000                 35                      1,281,982       7,339           
00126.M2TS      4616 (0x1208)   0x90            PGS             nor (Norwegian)         292.000                 35                      1,260,753       7,251           
00126.M2TS      4617 (0x1209)   0x90            PGS             srp (Serbian)           292.000                 39                      1,435,750       8,223           
00126.M2TS      4618 (0x120A)   0x90            PGS             slv (Slovenian)         292.000                 31                      1,122,623       6,499           
00126.M2TS      4619 (0x120B)   0x90            PGS             swe (Swedish)           292.000                 34                      1,223,960       7,050           
00126.M2TS      4620 (0x120C)   0x90            PGS             tur (Turkish)           292.000                 37                      1,344,681       7,707           
00126.M2TS      4621 (0x120D)   0x90            PGS             eng (English)           292.000                 68                      2,489,074       14,202          
00126.M2TS      4622 (0x120E)   0x90            PGS             deu (German)            292.000                 73                      2,664,306       15,154          
00127.M2TS (1)  4113 (0x1011)   0x1B            AVC                                     292.042                 27,763                  1,013,485,246   5,512,206       
00127.M2TS (1)  4352 (0x1100)   0x86            DTS-HD MA       eng (English)           292.042                 2,828                   103,220,860     606,242         
00127.M2TS (1)  4353 (0x1101)   0x86            DTS-HD MA       deu (German)            292.042                 2,884                   105,292,488     617,546         
00127.M2TS (1)  4354 (0x1102)   0x81            AC3             por (Portuguese)        292.042                 640                     23,370,240      136,935         
00127.M2TS (1)  4355 (0x1103)   0x81            AC3             hrv (Croatian)          292.042                 640                     23,370,240      136,935         
00127.M2TS (1)  4356 (0x1104)   0x81            AC3             dan (Danish)            292.042                 640                     23,370,240      136,935         
00127.M2TS (1)  4357 (0x1105)   0x81            AC3             fin (Finnish)           292.042                 640                     23,370,240      136,935         
00127.M2TS (1)  4358 (0x1106)   0x81            AC3             isl (Icelandic)         292.042                 640                     23,370,240      136,935         
00127.M2TS (1)  4359 (0x1107)   0x81            AC3             nor (Norwegian)         292.042                 640                     23,370,240      136,935         
00127.M2TS (1)  4360 (0x1108)   0x81            AC3             slv (Slovenian)         292.042                 640                     23,370,240      136,935         
00127.M2TS (1)  4361 (0x1109)   0x81            AC3             swe (Swedish)           292.042                 640                     23,370,240      136,935         
00127.M2TS (1)  4362 (0x110A)   0x81            AC3             tur (Turkish)           292.042                 640                     23,370,240      136,935         
00127.M2TS (1)  4363 (0x110B)   0x81            AC3             eng (English)           292.042                 192                     7,011,072       45,645          
00127.M2TS (1)  4608 (0x1200)   0x90            PGS             eng (English)           292.042                 31                      1,132,572       6,514           
00127.M2TS (1)  4609 (0x1201)   0x90            PGS             eng (English)           292.042                 31                      1,133,549       6,519           
00127.M2TS (1)  4610 (0x1202)   0x90            PGS             deu (German)            292.042                 40                      1,465,339       8,366           
00127.M2TS (1)  4611 (0x1203)   0x90            PGS             por (Portuguese)        292.042                 39                      1,409,791       8,062           
00127.M2TS (1)  4612 (0x1204)   0x90            PGS             hrv (Croatian)          292.042                 34                      1,223,183       7,041           
00127.M2TS (1)  4613 (0x1205)   0x90            PGS             dan (Danish)            292.042                 34                      1,230,433       7,042           
00127.M2TS (1)  4614 (0x1206)   0x90            PGS             fin (Finnish)           292.042                 32                      1,182,842       6,795           
00127.M2TS (1)  4615 (0x1207)   0x90            PGS             isl (Icelandic)         292.042                 34                      1,243,574       7,127           
00127.M2TS (1)  4616 (0x1208)   0x90            PGS             nor (Norwegian)         292.042                 34                      1,226,065       7,059           
00127.M2TS (1)  4617 (0x1209)   0x90            PGS             srp (Serbian)           292.042                 38                      1,378,039       7,902           
00127.M2TS (1)  4618 (0x120A)   0x90            PGS             slv (Slovenian)         292.042                 30                      1,089,426       6,315           
00127.M2TS (1)  4619 (0x120B)   0x90            PGS             swe (Swedish)           292.042                 32                      1,186,290       6,842           
00127.M2TS (1)  4620 (0x120C)   0x90            PGS             tur (Turkish)           292.042                 36                      1,313,326       7,533           
00127.M2TS (1)  4621 (0x120D)   0x90            PGS             eng (English)           292.042                 67                      2,435,309       13,902          
00127.M2TS (1)  4622 (0x120E)   0x90            PGS             deu (German)            292.042                 72                      2,636,096       14,997          
00128.M2TS      4113 (0x1011)   0x1B            AVC                                     5101.138                27,840                  17,752,106,525  96,550,860      
00128.M2TS      4352 (0x1100)   0x86            DTS-HD MA       eng (English)           5101.138                2,982                   1,901,213,448   11,123,906      
00128.M2TS      4353 (0x1101)   0x86            DTS-HD MA       deu (German)            5101.138                3,016                   1,922,819,884   11,241,861      
00128.M2TS      4354 (0x1102)   0x81            AC3             por (Portuguese)        5101.138                640                     408,102,400     2,391,225       
00128.M2TS      4355 (0x1103)   0x81            AC3             hrv (Croatian)          5101.138                640                     408,102,400     2,391,225       
00128.M2TS      4356 (0x1104)   0x81            AC3             dan (Danish)            5101.138                640                     408,102,400     2,391,225       
00128.M2TS      4357 (0x1105)   0x81            AC3             fin (Finnish)           5101.138                640                     408,102,400     2,391,225       
00128.M2TS      4358 (0x1106)   0x81            AC3             isl (Icelandic)         5101.138                640                     408,102,400     2,391,225       
00128.M2TS      4359 (0x1107)   0x81            AC3             nor (Norwegian)         5101.138                640                     408,102,400     2,391,225       
00128.M2TS      4360 (0x1108)   0x81            AC3             slv (Slovenian)         5101.138                640                     408,102,400     2,391,225       
00128.M2TS      4361 (0x1109)   0x81            AC3             swe (Swedish)           5101.138                640                     408,102,400     2,391,225       
00128.M2TS      4362 (0x110A)   0x81            AC3             tur (Turkish)           5101.138                640                     408,102,400     2,391,225       
00128.M2TS      4363 (0x110B)   0x81            AC3             eng (English)           5101.138                192                     122,430,720     797,075         
00128.M2TS      4608 (0x1200)   0x90            PGS             eng (English)           5101.138                30                      19,063,660      110,440         
00128.M2TS      4609 (0x1201)   0x90            PGS             eng (English)           5101.138                30                      19,073,013      110,488         
00128.M2TS      4610 (0x1202)   0x90            PGS             deu (German)            5101.138                35                      22,622,852      130,010         
00128.M2TS      4611 (0x1203)   0x90            PGS             por (Portuguese)        5101.138                31                      19,523,541      113,133         
00128.M2TS      4612 (0x1204)   0x90            PGS             hrv (Croatian)          5101.138                28                      17,558,050      102,415         
00128.M2TS      4613 (0x1205)   0x90            PGS             dan (Danish)            5101.138                28                      17,985,152      103,526         
00128.M2TS      4614 (0x1206)   0x90            PGS             fin (Finnish)           5101.138                28                      17,565,066      101,347         
00128.M2TS      4615 (0x1207)   0x90            PGS             isl (Icelandic)         5101.138                29                      18,253,845      104,866         
00128.M2TS      4616 (0x1208)   0x90            PGS             nor (Norwegian)         5101.138                29                      18,646,593      108,333         
00128.M2TS      4617 (0x1209)   0x90            PGS             srp (Serbian)           5101.138                29                      18,244,624      106,119         
00128.M2TS      4618 (0x120A)   0x90            PGS             slv (Slovenian)         5101.138                24                      15,601,044      91,796          
00128.M2TS      4619 (0x120B)   0x90            PGS             swe (Swedish)           5101.138                27                      17,488,763      102,060         
00128.M2TS      4620 (0x120C)   0x90            PGS             tur (Turkish)           5101.138                31                      20,057,080      116,007         
00128.M2TS      4621 (0x120D)   0x90            PGS             eng (English)           5101.138                65                      41,744,395      238,137         
00128.M2TS      4622 (0x120E)   0x90            PGS             deu (German)            5101.138                67                      42,747,552      243,632         

[/code]
<---- END FORUMS PASTE ---->

QUICK SUMMARY:

Disc Title: Cloudy With A Chance Of Meatballs - Blu-ray™
Disc Label: Wolkig.mit.Aussicht.auf.Fleischbällchen.2009.BluRay.German.Complete.Untouched-HQM
Disc Size: 39,919,552,750 bytes
Protection: AACS
Playlist: 00001.MPLS
Size: 29,086,236,672 bytes
Length: 1:29:53.387
Total Bitrate: 43.14 Mbps
Video: MPEG-4 AVC Video / 27834 kbps / 1080p / 23.976 fps / 16:9 / High Profile 4.1
Video: MPEG-4 AVC Video (1) / 1503 (27755) kbps / 1080p / 23.976 fps / 16:9 / High Profile 4.1
Audio: English / DTS-HD Master Audio / 5.1 / 48 kHz /  2973 kbps / 24-bit (DTS Core: 5.1 / 48 kHz /  1509 kbps / 24-bit)
Audio: German / DTS-HD Master Audio / 5.1 / 48 kHz /  3008 kbps / 24-bit (DTS Core: 5.1 / 48 kHz /  1509 kbps / 24-bit)
Audio: Portuguese / Dolby Digital Audio / 5.1 / 48 kHz /   640 kbps / DN -31dB
Audio: Croatian / Dolby Digital Audio / 5.1 / 48 kHz /   640 kbps / DN -31dB
Audio: Danish / Dolby Digital Audio / 5.1 / 48 kHz /   640 kbps / DN -31dB
Audio: Finnish / Dolby Digital Audio / 5.1 / 48 kHz /   640 kbps / DN -31dB
Audio: Icelandic / Dolby Digital Audio / 5.1 / 48 kHz /   640 kbps / DN -31dB
Audio: Norwegian / Dolby Digital Audio / 5.1 / 48 kHz /   640 kbps / DN -31dB
Audio: Slovenian / Dolby Digital Audio / 5.1 / 48 kHz /   640 kbps / DN -31dB
Audio: Swedish / Dolby Digital Audio / 5.1 / 48 kHz /   640 kbps / DN -31dB
Audio: Turkish / Dolby Digital Audio / 5.1 / 48 kHz /   640 kbps / DN -31dB
Audio: English / Dolby Digital Audio / 2.0 / 48 kHz /   192 kbps / DN -31dB / Dolby Surround
Subtitle: English / 30.002 kbps
* Subtitle: English / 30.017 kbps
Subtitle: German / 35.795 kbps
Subtitle: Portuguese / 31.102 kbps
Subtitle: Croatian / 27.909 kbps
Subtitle: Danish / 28.552 kbps
Subtitle: Finnish / 27.870 kbps
Subtitle: Icelandic / 28.977 kbps
Subtitle: Norwegian / 29.529 kbps
Subtitle: Serbian / 29.192 kbps
Subtitle: Slovenian / 24.806 kbps
Subtitle: Swedish / 27.757 kbps
Subtitle: Turkish / 31.745 kbps
Subtitle: English / 65.611 kbps
Subtitle: German / 67.359 kbps


********************
PLAYLIST: 00206.MPLS
********************

<--- BEGIN FORUMS PASTE --->
[code]
                                                                                                                Total   Video                                             
Title                                                           Codec   Length  Movie Size      Disc Size       Bitrate Bitrate Main Audio Track                          Secondary Audio Track
-----                                                           ------  ------- --------------  --------------  ------- ------- ------------------                        ---------------------
00206.MPLS                                                      AVC     1:29:53 29,086,236,672  39,919,552,750  43.14   27.83   DTS-HD Master 5.1 2973Kbps (48kHz/24-bit) 
[/code]

[code]

DISC INFO:

Disc Title:     Cloudy With A Chance Of Meatballs - Blu-ray™
Disc Label:     Wolkig.mit.Aussicht.auf.Fleischbällchen.2009.BluRay.German.Complete.Untouched-HQM
Disc Size:      39,919,552,750 bytes
Protection:     AACS
Extras:         BD-Java
BDInfo:         0.7.5.5

PLAYLIST REPORT:

Name:                   00206.MPLS
Length:                 1:29:53.387 (h:m:s.ms)
Size:                   29,086,236,672 bytes
Total Bitrate:          43.14 Mbps

Angle 1 Length:         0:04:52.125 (h:m:s.ms) / 1:29:53.387 (h:m:s.ms)
Angle 1 Size:           1,564,612,608 bytes / 29,086,316,544 bytes
Angle 1 Total Bitrate:  42.85 Mbps / 43.14 Mbps

All Angles Length:      1:34:45.513 (h:m:s.ms)
All Angles Size:        30,650,849,280 bytes
All Angles Bitrate:     43.13 Mbps

VIDEO:

Codec                   Bitrate             Description     
-----                   -------             -----------     
MPEG-4 AVC Video        27834 kbps          1080p / 23.976 fps / 16:9 / High Profile 4.1
MPEG-4 AVC Video (1)    1503 (27755) kbps   1080p / 23.976 fps / 16:9 / High Profile 4.1

AUDIO:

Codec                           Language        Bitrate         Description     
-----                           --------        -------         -----------     
DTS-HD Master Audio             English         2973 kbps       5.1 / 48 kHz /  2973 kbps / 24-bit (DTS Core: 5.1 / 48 kHz /  1509 kbps / 24-bit)
DTS-HD Master Audio             German          3008 kbps       5.1 / 48 kHz /  3008 kbps / 24-bit (DTS Core: 5.1 / 48 kHz /  1509 kbps / 24-bit)
Dolby Digital Audio             Portuguese      640 kbps        5.1 / 48 kHz /   640 kbps / DN -31dB
Dolby Digital Audio             Croatian        640 kbps        5.1 / 48 kHz /   640 kbps / DN -31dB
Dolby Digital Audio             Danish          640 kbps        5.1 / 48 kHz /   640 kbps / DN -31dB
Dolby Digital Audio             Finnish         640 kbps        5.1 / 48 kHz /   640 kbps / DN -31dB
Dolby Digital Audio             Icelandic       640 kbps        5.1 / 48 kHz /   640 kbps / DN -31dB
Dolby Digital Audio             Norwegian       640 kbps        5.1 / 48 kHz /   640 kbps / DN -31dB
Dolby Digital Audio             Slovenian       640 kbps        5.1 / 48 kHz /   640 kbps / DN -31dB
Dolby Digital Audio             Swedish         640 kbps        5.1 / 48 kHz /   640 kbps / DN -31dB
Dolby Digital Audio             Turkish         640 kbps        5.1 / 48 kHz /   640 kbps / DN -31dB
Dolby Digital Audio             English         192 kbps        2.0 / 48 kHz /   192 kbps / DN -31dB / Dolby Surround

SUBTITLES:

Codec                           Language        Bitrate         Description     
-----                           --------        -------         -----------     
Presentation Graphics           English         30.002 kbps                     
Presentation Graphics           English         30.017 kbps                     
Presentation Graphics           German          35.795 kbps                     
Presentation Graphics           Portuguese      31.102 kbps                     
Presentation Graphics           Croatian        27.909 kbps                     
Presentation Graphics           Danish          28.552 kbps                     
Presentation Graphics           Finnish         27.870 kbps                     
Presentation Graphics           Icelandic       28.977 kbps                     
Presentation Graphics           Norwegian       29.529 kbps                     
Presentation Graphics           Serbian         29.192 kbps                     
Presentation Graphics           Slovenian       24.806 kbps                     
Presentation Graphics           Swedish         27.757 kbps                     
Presentation Graphics           Turkish         31.745 kbps                     
Presentation Graphics           English         65.611 kbps                     
Presentation Graphics           German          67.359 kbps                     

FILES:

Name            Time In         Length          Size            Total Bitrate   
----            -------         ------          ----            -------------   
00126.M2TS      0:00:00.000     0:04:52.125     1,564,532,736   42,846          
00127.M2TS (1)  0:00:00.000     0:04:52.125     1,564,612,608   42,848          
00128.M2TS      0:04:52.125     1:25:01.262     27,521,703,936  43,161          

CHAPTERS:

Number          Time In         Length          Avg Video Rate  Max 1-Sec Rate  Max 1-Sec Time  Max 5-Sec Rate  Max 5-Sec Time  Max 10Sec Rate  Max 10Sec Time  Avg Frame Size  Max Frame Size  Max Frame Time  
------          -------         ------          --------------  --------------  --------------  --------------  --------------  --------------  --------------  --------------  --------------  --------------  
1               0:00:00.000     0:04:47.620     27,749 kbps     43,769 kbps     00:00:35.326    30,692 kbps     00:00:24.816    29,150 kbps     00:02:56.759    144,651 bytes   778,689 bytes   00:00:17.976    
2               0:04:47.620     0:04:08.957     27,851 kbps     43,501 kbps     00:04:48.705    31,964 kbps     00:05:45.136    30,024 kbps     00:05:40.048    145,205 bytes   736,397 bytes   00:05:26.868    
3               0:08:56.577     0:05:36.586     27,816 kbps     40,550 kbps     00:09:25.940    30,897 kbps     00:09:21.936    29,405 kbps     00:13:39.610    145,020 bytes   732,030 bytes   00:10:37.678    
4               0:14:33.163     0:05:57.065     28,041 kbps     41,637 kbps     00:15:45.027    30,798 kbps     00:15:45.027    30,188 kbps     00:15:39.855    146,193 bytes   751,776 bytes   00:20:09.166    
5               0:20:30.228     0:03:55.360     27,871 kbps     36,668 kbps     00:23:57.686    30,197 kbps     00:23:53.640    29,186 kbps     00:23:53.431    145,309 bytes   724,344 bytes   00:21:54.604    
6               0:24:25.589     0:06:17.585     27,801 kbps     39,469 kbps     00:26:20.578    31,190 kbps     00:26:26.418    30,457 kbps     00:26:27.752    144,940 bytes   782,567 bytes   00:26:30.297    
7               0:30:43.174     0:05:46.429     27,959 kbps     45,139 kbps     00:33:53.448    32,014 kbps     00:32:59.727    30,074 kbps     00:31:15.164    145,767 bytes   738,865 bytes   00:33:25.169    
8               0:36:29.604     0:06:20.505     27,975 kbps     40,023 kbps     00:40:08.989    31,997 kbps     00:37:34.293    30,413 kbps     00:37:34.043    145,846 bytes   719,326 bytes   00:42:36.470    
9               0:42:50.109     0:03:46.684     27,853 kbps     37,581 kbps     00:43:16.885    29,993 kbps     00:43:50.794    29,224 kbps     00:43:16.885    145,212 bytes   737,695 bytes   00:45:27.433    
10              0:46:36.793     0:06:07.033     27,831 kbps     41,328 kbps     00:49:04.941    31,824 kbps     00:52:13.755    29,755 kbps     00:48:04.339    145,099 bytes   719,329 bytes   00:47:47.781    
11              0:52:43.827     0:02:23.601     27,705 kbps     37,763 kbps     00:54:19.756    29,841 kbps     00:53:49.893    28,778 kbps     00:53:37.130    144,442 bytes   729,142 bytes   00:54:51.329    
12              0:55:07.429     0:05:35.335     27,841 kbps     40,464 kbps     00:57:08.133    30,731 kbps     00:57:47.338    29,160 kbps     00:57:46.796    145,151 bytes   764,925 bytes   00:57:31.322    
13              1:00:42.764     0:05:00.633     27,922 kbps     37,630 kbps     01:04:30.783    30,956 kbps     01:02:42.425    29,959 kbps     01:02:42.425    145,573 bytes   745,737 bytes   01:04:37.707    
14              1:05:43.397     0:07:20.356     27,791 kbps     41,009 kbps     01:07:56.572    30,999 kbps     01:12:58.749    29,608 kbps     01:09:49.143    144,890 bytes   773,100 bytes   01:06:29.151    
15              1:13:03.754     0:04:41.614     27,790 kbps     51,744 kbps     01:17:01.783    31,026 kbps     01:17:01.783    29,770 kbps     01:17:11.668    144,882 bytes   667,944 bytes   01:14:48.317    
16              1:17:45.369     0:12:08.018     27,665 kbps     47,685 kbps     01:23:32.590    33,744 kbps     01:23:23.665    31,406 kbps     01:21:10.991    144,240 bytes   782,376 bytes   01:17:54.002    

STREAM DIAGNOSTICS:

File            PID             Type            Codec           Language                Seconds                 Bitrate                 Bytes           Packets         
----            ---             ----            -----           --------                --------------          --------------          -------------   -----           
00126.M2TS      4113 (0x1011)   0x1B            AVC                                     292.000                 27,749                  1,012,835,872   5,508,683       
00126.M2TS      4352 (0x1100)   0x86            DTS-HD MA       eng (English)           292.000                 2,828                   103,220,860     606,242         
00126.M2TS      4353 (0x1101)   0x86            DTS-HD MA       deu (German)            292.000                 2,885                   105,292,488     617,546         
00126.M2TS      4354 (0x1102)   0x81            AC3             por (Portuguese)        292.000                 640                     23,370,240      136,935         
00126.M2TS      4355 (0x1103)   0x81            AC3             hrv (Croatian)          292.000                 640                     23,370,240      136,935         
00126.M2TS      4356 (0x1104)   0x81            AC3             dan (Danish)            292.000                 640                     23,370,240      136,935         
00126.M2TS      4357 (0x1105)   0x81            AC3             fin (Finnish)           292.000                 640                     23,370,240      136,935         
00126.M2TS      4358 (0x1106)   0x81            AC3             isl (Icelandic)         292.000                 640                     23,370,240      136,935         
00126.M2TS      4359 (0x1107)   0x81            AC3             nor (Norwegian)         292.000                 640                     23,370,240      136,935         
00126.M2TS      4360 (0x1108)   0x81            AC3             slv (Slovenian)         292.000                 640                     23,370,240      136,935         
00126.M2TS      4361 (0x1109)   0x81            AC3             swe (Swedish)           292.000                 640                     23,370,240      136,935         
00126.M2TS      4362 (0x110A)   0x81            AC3             tur (Turkish)           292.000                 640                     23,370,240      136,935         
00126.M2TS      4363 (0x110B)   0x81            AC3             eng (English)           292.000                 192                     7,011,072       45,645          
00126.M2TS      4608 (0x1200)   0x90            PGS             eng (English)           292.000                 32                      1,162,946       6,683           
00126.M2TS      4609 (0x1201)   0x90            PGS             eng (English)           292.000                 32                      1,163,923       6,688           
00126.M2TS      4610 (0x1202)   0x90            PGS             deu (German)            292.000                 41                      1,509,360       8,609           
00126.M2TS      4611 (0x1203)   0x90            PGS             por (Portuguese)        292.000                 40                      1,444,323       8,253           
00126.M2TS      4612 (0x1204)   0x90            PGS             hrv (Croatian)          292.000                 34                      1,257,557       7,231           
00126.M2TS      4613 (0x1205)   0x90            PGS             dan (Danish)            292.000                 35                      1,263,863       7,227           
00126.M2TS      4614 (0x1206)   0x90            PGS             fin (Finnish)           292.000                 34                      1,224,420       7,025           
00126.M2TS      4615 (0x1207)   0x90            PGS             isl (Icelandic)         292.000                 35                      1,281,982       7,339           
00126.M2TS      4616 (0x1208)   0x90            PGS             nor (Norwegian)         292.000                 35                      1,260,753       7,251           
00126.M2TS      4617 (0x1209)   0x90            PGS             srp (Serbian)           292.000                 39                      1,435,750       8,223           
00126.M2TS      4618 (0x120A)   0x90            PGS             slv (Slovenian)         292.000                 31                      1,122,623       6,499           
00126.M2TS      4619 (0x120B)   0x90            PGS             swe (Swedish)           292.000                 34                      1,223,960       7,050           
00126.M2TS      4620 (0x120C)   0x90            PGS             tur (Turkish)           292.000                 37                      1,344,681       7,707           
00126.M2TS      4621 (0x120D)   0x90            PGS             eng (English)           292.000                 68                      2,489,074       14,202          
00126.M2TS      4622 (0x120E)   0x90            PGS             deu (German)            292.000                 73                      2,664,306       15,154          
00127.M2TS (1)  4113 (0x1011)   0x1B            AVC                                     292.042                 27,763                  1,013,485,246   5,512,206       
00127.M2TS (1)  4352 (0x1100)   0x86            DTS-HD MA       eng (English)           292.042                 2,828                   103,220,860     606,242         
00127.M2TS (1)  4353 (0x1101)   0x86            DTS-HD MA       deu (German)            292.042                 2,884                   105,292,488     617,546         
00127.M2TS (1)  4354 (0x1102)   0x81            AC3             por (Portuguese)        292.042                 640                     23,370,240      136,935         
00127.M2TS (1)  4355 (0x1103)   0x81            AC3             hrv (Croatian)          292.042                 640                     23,370,240      136,935         
00127.M2TS (1)  4356 (0x1104)   0x81            AC3             dan (Danish)            292.042                 640                     23,370,240      136,935         
00127.M2TS (1)  4357 (0x1105)   0x81            AC3             fin (Finnish)           292.042                 640                     23,370,240      136,935         
00127.M2TS (1)  4358 (0x1106)   0x81            AC3             isl (Icelandic)         292.042                 640                     23,370,240      136,935         
00127.M2TS (1)  4359 (0x1107)   0x81            AC3             nor (Norwegian)         292.042                 640                     23,370,240      136,935         
00127.M2TS (1)  4360 (0x1108)   0x81            AC3             slv (Slovenian)         292.042                 640                     23,370,240      136,935         
00127.M2TS (1)  4361 (0x1109)   0x81            AC3             swe (Swedish)           292.042                 640                     23,370,240      136,935         
00127.M2TS (1)  4362 (0x110A)   0x81            AC3             tur (Turkish)           292.042                 640                     23,370,240      136,935         
00127.M2TS (1)  4363 (0x110B)   0x81            AC3             eng (English)           292.042                 192                     7,011,072       45,645          
00127.M2TS (1)  4608 (0x1200)   0x90            PGS             eng (English)           292.042                 31                      1,132,572       6,514           
00127.M2TS (1)  4609 (0x1201)   0x90            PGS             eng (English)           292.042                 31                      1,133,549       6,519           
00127.M2TS (1)  4610 (0x1202)   0x90            PGS             deu (German)            292.042                 40                      1,465,339       8,366           
00127.M2TS (1)  4611 (0x1203)   0x90            PGS             por (Portuguese)        292.042                 39                      1,409,791       8,062           
00127.M2TS (1)  4612 (0x1204)   0x90            PGS             hrv (Croatian)          292.042                 34                      1,223,183       7,041           
00127.M2TS (1)  4613 (0x1205)   0x90            PGS             dan (Danish)            292.042                 34                      1,230,433       7,042           
00127.M2TS (1)  4614 (0x1206)   0x90            PGS             fin (Finnish)           292.042                 32                      1,182,842       6,795           
00127.M2TS (1)  4615 (0x1207)   0x90            PGS             isl (Icelandic)         292.042                 34                      1,243,574       7,127           
00127.M2TS (1)  4616 (0x1208)   0x90            PGS             nor (Norwegian)         292.042                 34                      1,226,065       7,059           
00127.M2TS (1)  4617 (0x1209)   0x90            PGS             srp (Serbian)           292.042                 38                      1,378,039       7,902           
00127.M2TS (1)  4618 (0x120A)   0x90            PGS             slv (Slovenian)         292.042                 30                      1,089,426       6,315           
00127.M2TS (1)  4619 (0x120B)   0x90            PGS             swe (Swedish)           292.042                 32                      1,186,290       6,842           
00127.M2TS (1)  4620 (0x120C)   0x90            PGS             tur (Turkish)           292.042                 36                      1,313,326       7,533           
00127.M2TS (1)  4621 (0x120D)   0x90            PGS             eng (English)           292.042                 67                      2,435,309       13,902          
00127.M2TS (1)  4622 (0x120E)   0x90            PGS             deu (German)            292.042                 72                      2,636,096       14,997          
00128.M2TS      4113 (0x1011)   0x1B            AVC                                     5101.138                27,840                  17,752,106,525  96,550,860      
00128.M2TS      4352 (0x1100)   0x86            DTS-HD MA       eng (English)           5101.138                2,982                   1,901,213,448   11,123,906      
00128.M2TS      4353 (0x1101)   0x86            DTS-HD MA       deu (German)            5101.138                3,016                   1,922,819,884   11,241,861      
00128.M2TS      4354 (0x1102)   0x81            AC3             por (Portuguese)        5101.138                640                     408,102,400     2,391,225       
00128.M2TS      4355 (0x1103)   0x81            AC3             hrv (Croatian)          5101.138                640                     408,102,400     2,391,225       
00128.M2TS      4356 (0x1104)   0x81            AC3             dan (Danish)            5101.138                640                     408,102,400     2,391,225       
00128.M2TS      4357 (0x1105)   0x81            AC3             fin (Finnish)           5101.138                640                     408,102,400     2,391,225       
00128.M2TS      4358 (0x1106)   0x81            AC3             isl (Icelandic)         5101.138                640                     408,102,400     2,391,225       
00128.M2TS      4359 (0x1107)   0x81            AC3             nor (Norwegian)         5101.138                640                     408,102,400     2,391,225       
00128.M2TS      4360 (0x1108)   0x81            AC3             slv (Slovenian)         5101.138                640                     408,102,400     2,391,225       
00128.M2TS      4361 (0x1109)   0x81            AC3             swe (Swedish)           5101.138                640                     408,102,400     2,391,225       
00128.M2TS      4362 (0x110A)   0x81            AC3             tur (Turkish)           5101.138                640                     408,102,400     2,391,225       
00128.M2TS      4363 (0x110B)   0x81            AC3             eng (English)           5101.138                192                     122,430,720     797,075         
00128.M2TS      4608 (0x1200)   0x90            PGS             eng (English)           5101.138                30                      19,063,660      110,440         
00128.M2TS      4609 (0x1201)   0x90            PGS             eng (English)           5101.138                30                      19,073,013      110,488         
00128.M2TS      4610 (0x1202)   0x90            PGS             deu (German)            5101.138                35                      22,622,852      130,010         
00128.M2TS      4611 (0x1203)   0x90            PGS             por (Portuguese)        5101.138                31                      19,523,541      113,133         
00128.M2TS      4612 (0x1204)   0x90            PGS             hrv (Croatian)          5101.138                28                      17,558,050      102,415         
00128.M2TS      4613 (0x1205)   0x90            PGS             dan (Danish)            5101.138                28                      17,985,152      103,526         
00128.M2TS      4614 (0x1206)   0x90            PGS             fin (Finnish)           5101.138                28                      17,565,066      101,347         
00128.M2TS      4615 (0x1207)   0x90            PGS             isl (Icelandic)         5101.138                29                      18,253,845      104,866         
00128.M2TS      4616 (0x1208)   0x90            PGS             nor (Norwegian)         5101.138                29                      18,646,593      108,333         
00128.M2TS      4617 (0x1209)   0x90            PGS             srp (Serbian)           5101.138                29                      18,244,624      106,119         
00128.M2TS      4618 (0x120A)   0x90            PGS             slv (Slovenian)         5101.138                24                      15,601,044      91,796          
00128.M2TS      4619 (0x120B)   0x90            PGS             swe (Swedish)           5101.138                27                      17,488,763      102,060         
00128.M2TS      4620 (0x120C)   0x90            PGS             tur (Turkish)           5101.138                31                      20,057,080      116,007         
00128.M2TS      4621 (0x120D)   0x90            PGS             eng (English)           5101.138                65                      41,744,395      238,137         
00128.M2TS      4622 (0x120E)   0x90            PGS             deu (German)            5101.138                67                      42,747,552      243,632         

[/code]
<---- END FORUMS PASTE ---->

QUICK SUMMARY:

Disc Title: Cloudy With A Chance Of Meatballs - Blu-ray™
Disc Label: Wolkig.mit.Aussicht.auf.Fleischbällchen.2009.BluRay.German.Complete.Untouched-HQM
Disc Size: 39,919,552,750 bytes
Protection: AACS
Playlist: 00206.MPLS
Size: 29,086,236,672 bytes
Length: 1:29:53.387
Total Bitrate: 43.14 Mbps
Video: MPEG-4 AVC Video / 27834 kbps / 1080p / 23.976 fps / 16:9 / High Profile 4.1
Video: MPEG-4 AVC Video (1) / 1503 (27755) kbps / 1080p / 23.976 fps / 16:9 / High Profile 4.1
Audio: English / DTS-HD Master Audio / 5.1 / 48 kHz /  2973 kbps / 24-bit (DTS Core: 5.1 / 48 kHz /  1509 kbps / 24-bit)
Audio: German / DTS-HD Master Audio / 5.1 / 48 kHz /  3008 kbps / 24-bit (DTS Core: 5.1 / 48 kHz /  1509 kbps / 24-bit)
Audio: Portuguese / Dolby Digital Audio / 5.1 / 48 kHz /   640 kbps / DN -31dB
Audio: Croatian / Dolby Digital Audio / 5.1 / 48 kHz /   640 kbps / DN -31dB
Audio: Danish / Dolby Digital Audio / 5.1 / 48 kHz /   640 kbps / DN -31dB
Audio: Finnish / Dolby Digital Audio / 5.1 / 48 kHz /   640 kbps / DN -31dB
Audio: Icelandic / Dolby Digital Audio / 5.1 / 48 kHz /   640 kbps / DN -31dB
Audio: Norwegian / Dolby Digital Audio / 5.1 / 48 kHz /   640 kbps / DN -31dB
Audio: Slovenian / Dolby Digital Audio / 5.1 / 48 kHz /   640 kbps / DN -31dB
Audio: Swedish / Dolby Digital Audio / 5.1 / 48 kHz /   640 kbps / DN -31dB
Audio: Turkish / Dolby Digital Audio / 5.1 / 48 kHz /   640 kbps / DN -31dB
Audio: English / Dolby Digital Audio / 2.0 / 48 kHz /   192 kbps / DN -31dB / Dolby Surround
Subtitle: English / 30.002 kbps
Subtitle: English / 30.017 kbps
Subtitle: German / 35.795 kbps
Subtitle: Portuguese / 31.102 kbps
Subtitle: Croatian / 27.909 kbps
Subtitle: Danish / 28.552 kbps
Subtitle: Finnish / 27.870 kbps
Subtitle: Icelandic / 28.977 kbps
Subtitle: Norwegian / 29.529 kbps
Subtitle: Serbian / 29.192 kbps
Subtitle: Slovenian / 24.806 kbps
Subtitle: Swedish / 27.757 kbps
Subtitle: Turkish / 31.745 kbps
Subtitle: English / 65.611 kbps
Subtitle: German / 67.359 kbps


********************
PLAYLIST: 00207.MPLS
********************

<--- BEGIN FORUMS PASTE --->
[code]
                                                                                                                Total   Video                                             
Title                                                           Codec   Length  Movie Size      Disc Size       Bitrate Bitrate Main Audio Track                          Secondary Audio Track
-----                                                           ------  ------- --------------  --------------  ------- ------- ------------------                        ---------------------
00207.MPLS                                                      AVC     1:29:53 29,086,236,672  39,919,552,750  43.14   27.83   DTS-HD Master 5.1 2973Kbps (48kHz/24-bit) 
[/code]

[code]

DISC INFO:

Disc Title:     Cloudy With A Chance Of Meatballs - Blu-ray™
Disc Label:     Wolkig.mit.Aussicht.auf.Fleischbällchen.2009.BluRay.German.Complete.Untouched-HQM
Disc Size:      39,919,552,750 bytes
Protection:     AACS
Extras:         BD-Java
BDInfo:         0.7.5.5

PLAYLIST REPORT:

Name:                   00207.MPLS
Length:                 1:29:53.387 (h:m:s.ms)
Size:                   29,086,236,672 bytes
Total Bitrate:          43.14 Mbps

Angle 1 Length:         0:04:52.125 (h:m:s.ms) / 1:29:53.387 (h:m:s.ms)
Angle 1 Size:           1,564,612,608 bytes / 29,086,316,544 bytes
Angle 1 Total Bitrate:  42.85 Mbps / 43.14 Mbps

All Angles Length:      1:34:45.513 (h:m:s.ms)
All Angles Size:        30,650,849,280 bytes
All Angles Bitrate:     43.13 Mbps

(*) Indicates included stream hidden by this playlist.

VIDEO:

Codec                   Bitrate             Description     
-----                   -------             -----------     
MPEG-4 AVC Video        27834 kbps          1080p / 23.976 fps / 16:9 / High Profile 4.1
MPEG-4 AVC Video (1)    1503 (27755) kbps   1080p / 23.976 fps / 16:9 / High Profile 4.1

AUDIO:

Codec                           Language        Bitrate         Description     
-----                           --------        -------         -----------     
DTS-HD Master Audio             English         2973 kbps       5.1 / 48 kHz /  2973 kbps / 24-bit (DTS Core: 5.1 / 48 kHz /  1509 kbps / 24-bit)
DTS-HD Master Audio             German          3008 kbps       5.1 / 48 kHz /  3008 kbps / 24-bit (DTS Core: 5.1 / 48 kHz /  1509 kbps / 24-bit)
Dolby Digital Audio             Portuguese      640 kbps        5.1 / 48 kHz /   640 kbps / DN -31dB
Dolby Digital Audio             Croatian        640 kbps        5.1 / 48 kHz /   640 kbps / DN -31dB
Dolby Digital Audio             Danish          640 kbps        5.1 / 48 kHz /   640 kbps / DN -31dB
Dolby Digital Audio             Finnish         640 kbps        5.1 / 48 kHz /   640 kbps / DN -31dB
Dolby Digital Audio             Icelandic       640 kbps        5.1 / 48 kHz /   640 kbps / DN -31dB
Dolby Digital Audio             Norwegian       640 kbps        5.1 / 48 kHz /   640 kbps / DN -31dB
Dolby Digital Audio             Slovenian       640 kbps        5.1 / 48 kHz /   640 kbps / DN -31dB
Dolby Digital Audio             Swedish         640 kbps        5.1 / 48 kHz /   640 kbps / DN -31dB
Dolby Digital Audio             Turkish         640 kbps        5.1 / 48 kHz /   640 kbps / DN -31dB
Dolby Digital Audio             English         192 kbps        2.0 / 48 kHz /   192 kbps / DN -31dB / Dolby Surround

SUBTITLES:

Codec                           Language        Bitrate         Description     
-----                           --------        -------         -----------     
* Presentation Graphics         English         30.002 kbps                     
Presentation Graphics           English         30.017 kbps                     
Presentation Graphics           German          35.795 kbps                     
Presentation Graphics           Portuguese      31.102 kbps                     
Presentation Graphics           Croatian        27.909 kbps                     
Presentation Graphics           Danish          28.552 kbps                     
Presentation Graphics           Finnish         27.870 kbps                     
Presentation Graphics           Icelandic       28.977 kbps                     
Presentation Graphics           Norwegian       29.529 kbps                     
Presentation Graphics           Serbian         29.192 kbps                     
Presentation Graphics           Slovenian       24.806 kbps                     
Presentation Graphics           Swedish         27.757 kbps                     
Presentation Graphics           Turkish         31.745 kbps                     
Presentation Graphics           English         65.611 kbps                     
Presentation Graphics           German          67.359 kbps                     

FILES:

Name            Time In         Length          Size            Total Bitrate   
----            -------         ------          ----            -------------   
00126.M2TS      0:00:00.000     0:04:52.125     1,564,532,736   42,846          
00127.M2TS (1)  0:00:00.000     0:04:52.125     1,564,612,608   42,848          
00128.M2TS      0:04:52.125     1:25:01.262     27,521,703,936  43,161          

CHAPTERS:

Number          Time In         Length          Avg Video Rate  Max 1-Sec Rate  Max 1-Sec Time  Max 5-Sec Rate  Max 5-Sec Time  Max 10Sec Rate  Max 10Sec Time  Avg Frame Size  Max Frame Size  Max Frame Time  
------          -------         ------          --------------  --------------  --------------  --------------  --------------  --------------  --------------  --------------  --------------  --------------  
1               0:00:00.000     0:04:47.620     27,749 kbps     43,769 kbps     00:00:35.326    30,692 kbps     00:00:24.816    29,150 kbps     00:02:56.759    144,651 bytes   778,689 bytes   00:00:17.976    
2               0:04:47.620     0:04:08.957     27,851 kbps     43,501 kbps     00:04:48.705    31,964 kbps     00:05:45.136    30,024 kbps     00:05:40.048    145,205 bytes   736,397 bytes   00:05:26.868    
3               0:08:56.577     0:05:36.586     27,816 kbps     40,550 kbps     00:09:25.940    30,897 kbps     00:09:21.936    29,405 kbps     00:13:39.610    145,020 bytes   732,030 bytes   00:10:37.678    
4               0:14:33.163     0:05:57.065     28,041 kbps     41,637 kbps     00:15:45.027    30,798 kbps     00:15:45.027    30,188 kbps     00:15:39.855    146,193 bytes   751,776 bytes   00:20:09.166    
5               0:20:30.228     0:03:55.360     27,871 kbps     36,668 kbps     00:23:57.686    30,197 kbps     00:23:53.640    29,186 kbps     00:23:53.431    145,309 bytes   724,344 bytes   00:21:54.604    
6               0:24:25.589     0:06:17.585     27,801 kbps     39,469 kbps     00:26:20.578    31,190 kbps     00:26:26.418    30,457 kbps     00:26:27.752    144,940 bytes   782,567 bytes   00:26:30.297    
7               0:30:43.174     0:05:46.429     27,959 kbps     45,139 kbps     00:33:53.448    32,014 kbps     00:32:59.727    30,074 kbps     00:31:15.164    145,767 bytes   738,865 bytes   00:33:25.169    
8               0:36:29.604     0:06:20.505     27,975 kbps     40,023 kbps     00:40:08.989    31,997 kbps     00:37:34.293    30,413 kbps     00:37:34.043    145,846 bytes   719,326 bytes   00:42:36.470    
9               0:42:50.109     0:03:46.684     27,853 kbps     37,581 kbps     00:43:16.885    29,993 kbps     00:43:50.794    29,224 kbps     00:43:16.885    145,212 bytes   737,695 bytes   00:45:27.433    
10              0:46:36.793     0:06:07.033     27,831 kbps     41,328 kbps     00:49:04.941    31,824 kbps     00:52:13.755    29,755 kbps     00:48:04.339    145,099 bytes   719,329 bytes   00:47:47.781    
11              0:52:43.827     0:02:23.601     27,705 kbps     37,763 kbps     00:54:19.756    29,841 kbps     00:53:49.893    28,778 kbps     00:53:37.130    144,442 bytes   729,142 bytes   00:54:51.329    
12              0:55:07.429     0:05:35.335     27,841 kbps     40,464 kbps     00:57:08.133    30,731 kbps     00:57:47.338    29,160 kbps     00:57:46.796    145,151 bytes   764,925 bytes   00:57:31.322    
13              1:00:42.764     0:05:00.633     27,922 kbps     37,630 kbps     01:04:30.783    30,956 kbps     01:02:42.425    29,959 kbps     01:02:42.425    145,573 bytes   745,737 bytes   01:04:37.707    
14              1:05:43.397     0:07:20.356     27,791 kbps     41,009 kbps     01:07:56.572    30,999 kbps     01:12:58.749    29,608 kbps     01:09:49.143    144,890 bytes   773,100 bytes   01:06:29.151    
15              1:13:03.754     0:04:41.614     27,790 kbps     51,744 kbps     01:17:01.783    31,026 kbps     01:17:01.783    29,770 kbps     01:17:11.668    144,882 bytes   667,944 bytes   01:14:48.317    
16              1:17:45.369     0:12:08.018     27,665 kbps     47,685 kbps     01:23:32.590    33,744 kbps     01:23:23.665    31,406 kbps     01:21:10.991    144,240 bytes   782,376 bytes   01:17:54.002    

STREAM DIAGNOSTICS:

File            PID             Type            Codec           Language                Seconds                 Bitrate                 Bytes           Packets         
----            ---             ----            -----           --------                --------------          --------------          -------------   -----           
00126.M2TS      4113 (0x1011)   0x1B            AVC                                     292.000                 27,749                  1,012,835,872   5,508,683       
00126.M2TS      4352 (0x1100)   0x86            DTS-HD MA       eng (English)           292.000                 2,828                   103,220,860     606,242         
00126.M2TS      4353 (0x1101)   0x86            DTS-HD MA       deu (German)            292.000                 2,885                   105,292,488     617,546         
00126.M2TS      4354 (0x1102)   0x81            AC3             por (Portuguese)        292.000                 640                     23,370,240      136,935         
00126.M2TS      4355 (0x1103)   0x81            AC3             hrv (Croatian)          292.000                 640                     23,370,240      136,935         
00126.M2TS      4356 (0x1104)   0x81            AC3             dan (Danish)            292.000                 640                     23,370,240      136,935         
00126.M2TS      4357 (0x1105)   0x81            AC3             fin (Finnish)           292.000                 640                     23,370,240      136,935         
00126.M2TS      4358 (0x1106)   0x81            AC3             isl (Icelandic)         292.000                 640                     23,370,240      136,935         
00126.M2TS      4359 (0x1107)   0x81            AC3             nor (Norwegian)         292.000                 640                     23,370,240      136,935         
00126.M2TS      4360 (0x1108)   0x81            AC3             slv (Slovenian)         292.000                 640                     23,370,240      136,935         
00126.M2TS      4361 (0x1109)   0x81            AC3             swe (Swedish)           292.000                 640                     23,370,240      136,935         
00126.M2TS      4362 (0x110A)   0x81            AC3             tur (Turkish)           292.000                 640                     23,370,240      136,935         
00126.M2TS      4363 (0x110B)   0x81            AC3             eng (English)           292.000                 192                     7,011,072       45,645          
00126.M2TS      4608 (0x1200)   0x90            PGS             eng (English)           292.000                 32                      1,162,946       6,683           
00126.M2TS      4609 (0x1201)   0x90            PGS             eng (English)           292.000                 32                      1,163,923       6,688           
00126.M2TS      4610 (0x1202)   0x90            PGS             deu (German)            292.000                 41                      1,509,360       8,609           
00126.M2TS      4611 (0x1203)   0x90            PGS             por (Portuguese)        292.000                 40                      1,444,323       8,253           
00126.M2TS      4612 (0x1204)   0x90            PGS             hrv (Croatian)          292.000                 34                      1,257,557       7,231           
00126.M2TS      4613 (0x1205)   0x90            PGS             dan (Danish)            292.000                 35                      1,263,863       7,227           
00126.M2TS      4614 (0x1206)   0x90            PGS             fin (Finnish)           292.000                 34                      1,224,420       7,025           
00126.M2TS      4615 (0x1207)   0x90            PGS             isl (Icelandic)         292.000                 35                      1,281,982       7,339           
00126.M2TS      4616 (0x1208)   0x90            PGS             nor (Norwegian)         292.000                 35                      1,260,753       7,251           
00126.M2TS      4617 (0x1209)   0x90            PGS             srp (Serbian)           292.000                 39                      1,435,750       8,223           
00126.M2TS      4618 (0x120A)   0x90            PGS             slv (Slovenian)         292.000                 31                      1,122,623       6,499           
00126.M2TS      4619 (0x120B)   0x90            PGS             swe (Swedish)           292.000                 34                      1,223,960       7,050           
00126.M2TS      4620 (0x120C)   0x90            PGS             tur (Turkish)           292.000                 37                      1,344,681       7,707           
00126.M2TS      4621 (0x120D)   0x90            PGS             eng (English)           292.000                 68                      2,489,074       14,202          
00126.M2TS      4622 (0x120E)   0x90            PGS             deu (German)            292.000                 73                      2,664,306       15,154          
00127.M2TS (1)  4113 (0x1011)   0x1B            AVC                                     292.042                 27,763                  1,013,485,246   5,512,206       
00127.M2TS (1)  4352 (0x1100)   0x86            DTS-HD MA       eng (English)           292.042                 2,828                   103,220,860     606,242         
00127.M2TS (1)  4353 (0x1101)   0x86            DTS-HD MA       deu (German)            292.042                 2,884                   105,292,488     617,546         
00127.M2TS (1)  4354 (0x1102)   0x81            AC3             por (Portuguese)        292.042                 640                     23,370,240      136,935         
00127.M2TS (1)  4355 (0x1103)   0x81            AC3             hrv (Croatian)          292.042                 640                     23,370,240      136,935         
00127.M2TS (1)  4356 (0x1104)   0x81            AC3             dan (Danish)            292.042                 640                     23,370,240      136,935         
00127.M2TS (1)  4357 (0x1105)   0x81            AC3             fin (Finnish)           292.042                 640                     23,370,240      136,935         
00127.M2TS (1)  4358 (0x1106)   0x81            AC3             isl (Icelandic)         292.042                 640                     23,370,240      136,935         
00127.M2TS (1)  4359 (0x1107)   0x81            AC3             nor (Norwegian)         292.042                 640                     23,370,240      136,935         
00127.M2TS (1)  4360 (0x1108)   0x81            AC3             slv (Slovenian)         292.042                 640                     23,370,240      136,935         
00127.M2TS (1)  4361 (0x1109)   0x81            AC3             swe (Swedish)           292.042                 640                     23,370,240      136,935         
00127.M2TS (1)  4362 (0x110A)   0x81            AC3             tur (Turkish)           292.042                 640                     23,370,240      136,935         
00127.M2TS (1)  4363 (0x110B)   0x81            AC3             eng (English)           292.042                 192                     7,011,072       45,645          
00127.M2TS (1)  4608 (0x1200)   0x90            PGS             eng (English)           292.042                 31                      1,132,572       6,514           
00127.M2TS (1)  4609 (0x1201)   0x90            PGS             eng (English)           292.042                 31                      1,133,549       6,519           
00127.M2TS (1)  4610 (0x1202)   0x90            PGS             deu (German)            292.042                 40                      1,465,339       8,366           
00127.M2TS (1)  4611 (0x1203)   0x90            PGS             por (Portuguese)        292.042                 39                      1,409,791       8,062           
00127.M2TS (1)  4612 (0x1204)   0x90            PGS             hrv (Croatian)          292.042                 34                      1,223,183       7,041           
00127.M2TS (1)  4613 (0x1205)   0x90            PGS             dan (Danish)            292.042                 34                      1,230,433       7,042           
00127.M2TS (1)  4614 (0x1206)   0x90            PGS             fin (Finnish)           292.042                 32                      1,182,842       6,795           
00127.M2TS (1)  4615 (0x1207)   0x90            PGS             isl (Icelandic)         292.042                 34                      1,243,574       7,127           
00127.M2TS (1)  4616 (0x1208)   0x90            PGS             nor (Norwegian)         292.042                 34                      1,226,065       7,059           
00127.M2TS (1)  4617 (0x1209)   0x90            PGS             srp (Serbian)           292.042                 38                      1,378,039       7,902           
00127.M2TS (1)  4618 (0x120A)   0x90            PGS             slv (Slovenian)         292.042                 30                      1,089,426       6,315           
00127.M2TS (1)  4619 (0x120B)   0x90            PGS             swe (Swedish)           292.042                 32                      1,186,290       6,842           
00127.M2TS (1)  4620 (0x120C)   0x90            PGS             tur (Turkish)           292.042                 36                      1,313,326       7,533           
00127.M2TS (1)  4621 (0x120D)   0x90            PGS             eng (English)           292.042                 67                      2,435,309       13,902          
00127.M2TS (1)  4622 (0x120E)   0x90            PGS             deu (German)            292.042                 72                      2,636,096       14,997          
00128.M2TS      4113 (0x1011)   0x1B            AVC                                     5101.138                27,840                  17,752,106,525  96,550,860      
00128.M2TS      4352 (0x1100)   0x86            DTS-HD MA       eng (English)           5101.138                2,982                   1,901,213,448   11,123,906      
00128.M2TS      4353 (0x1101)   0x86            DTS-HD MA       deu (German)            5101.138                3,016                   1,922,819,884   11,241,861      
00128.M2TS      4354 (0x1102)   0x81            AC3             por (Portuguese)        5101.138                640                     408,102,400     2,391,225       
00128.M2TS      4355 (0x1103)   0x81            AC3             hrv (Croatian)          5101.138                640                     408,102,400     2,391,225       
00128.M2TS      4356 (0x1104)   0x81            AC3             dan (Danish)            5101.138                640                     408,102,400     2,391,225       
00128.M2TS      4357 (0x1105)   0x81            AC3             fin (Finnish)           5101.138                640                     408,102,400     2,391,225       
00128.M2TS      4358 (0x1106)   0x81            AC3             isl (Icelandic)         5101.138                640                     408,102,400     2,391,225       
00128.M2TS      4359 (0x1107)   0x81            AC3             nor (Norwegian)         5101.138                640                     408,102,400     2,391,225       
00128.M2TS      4360 (0x1108)   0x81            AC3             slv (Slovenian)         5101.138                640                     408,102,400     2,391,225       
00128.M2TS      4361 (0x1109)   0x81            AC3             swe (Swedish)           5101.138                640                     408,102,400     2,391,225       
00128.M2TS      4362 (0x110A)   0x81            AC3             tur (Turkish)           5101.138                640                     408,102,400     2,391,225       
00128.M2TS      4363 (0x110B)   0x81            AC3             eng (English)           5101.138                192                     122,430,720     797,075         
00128.M2TS      4608 (0x1200)   0x90            PGS             eng (English)           5101.138                30                      19,063,660      110,440         
00128.M2TS      4609 (0x1201)   0x90            PGS             eng (English)           5101.138                30                      19,073,013      110,488         
00128.M2TS      4610 (0x1202)   0x90            PGS             deu (German)            5101.138                35                      22,622,852      130,010         
00128.M2TS      4611 (0x1203)   0x90            PGS             por (Portuguese)        5101.138                31                      19,523,541      113,133         
00128.M2TS      4612 (0x1204)   0x90            PGS             hrv (Croatian)          5101.138                28                      17,558,050      102,415         
00128.M2TS      4613 (0x1205)   0x90            PGS             dan (Danish)            5101.138                28                      17,985,152      103,526         
00128.M2TS      4614 (0x1206)   0x90            PGS             fin (Finnish)           5101.138                28                      17,565,066      101,347         
00128.M2TS      4615 (0x1207)   0x90            PGS             isl (Icelandic)         5101.138                29                      18,253,845      104,866         
00128.M2TS      4616 (0x1208)   0x90            PGS             nor (Norwegian)         5101.138                29                      18,646,593      108,333         
00128.M2TS      4617 (0x1209)   0x90            PGS             srp (Serbian)           5101.138                29                      18,244,624      106,119         
00128.M2TS      4618 (0x120A)   0x90            PGS             slv (Slovenian)         5101.138                24                      15,601,044      91,796          
00128.M2TS      4619 (0x120B)   0x90            PGS             swe (Swedish)           5101.138                27                      17,488,763      102,060         
00128.M2TS      4620 (0x120C)   0x90            PGS             tur (Turkish)           5101.138                31                      20,057,080      116,007         
00128.M2TS      4621 (0x120D)   0x90            PGS             eng (English)           5101.138                65                      41,744,395      238,137         
00128.M2TS      4622 (0x120E)   0x90            PGS             deu (German)            5101.138                67                      42,747,552      243,632         

[/code]
<---- END FORUMS PASTE ---->

QUICK SUMMARY:

Disc Title: Cloudy With A Chance Of Meatballs - Blu-ray™
Disc Label: Wolkig.mit.Aussicht.auf.Fleischbällchen.2009.BluRay.German.Complete.Untouched-HQM
Disc Size: 39,919,552,750 bytes
Protection: AACS
Playlist: 00207.MPLS
Size: 29,086,236,672 bytes
Length: 1:29:53.387
Total Bitrate: 43.14 Mbps
Video: MPEG-4 AVC Video / 27834 kbps / 1080p / 23.976 fps / 16:9 / High Profile 4.1
Video: MPEG-4 AVC Video (1) / 1503 (27755) kbps / 1080p / 23.976 fps / 16:9 / High Profile 4.1
Audio: English / DTS-HD Master Audio / 5.1 / 48 kHz /  2973 kbps / 24-bit (DTS Core: 5.1 / 48 kHz /  1509 kbps / 24-bit)
Audio: German / DTS-HD Master Audio / 5.1 / 48 kHz /  3008 kbps / 24-bit (DTS Core: 5.1 / 48 kHz /  1509 kbps / 24-bit)
Audio: Portuguese / Dolby Digital Audio / 5.1 / 48 kHz /   640 kbps / DN -31dB
Audio: Croatian / Dolby Digital Audio / 5.1 / 48 kHz /   640 kbps / DN -31dB
Audio: Danish / Dolby Digital Audio / 5.1 / 48 kHz /   640 kbps / DN -31dB
Audio: Finnish / Dolby Digital Audio / 5.1 / 48 kHz /   640 kbps / DN -31dB
Audio: Icelandic / Dolby Digital Audio / 5.1 / 48 kHz /   640 kbps / DN -31dB
Audio: Norwegian / Dolby Digital Audio / 5.1 / 48 kHz /   640 kbps / DN -31dB
Audio: Slovenian / Dolby Digital Audio / 5.1 / 48 kHz /   640 kbps / DN -31dB
Audio: Swedish / Dolby Digital Audio / 5.1 / 48 kHz /   640 kbps / DN -31dB
Audio: Turkish / Dolby Digital Audio / 5.1 / 48 kHz /   640 kbps / DN -31dB
Audio: English / Dolby Digital Audio / 2.0 / 48 kHz /   192 kbps / DN -31dB / Dolby Surround
* Subtitle: English / 30.002 kbps
Subtitle: English / 30.017 kbps
Subtitle: German / 35.795 kbps
Subtitle: Portuguese / 31.102 kbps
Subtitle: Croatian / 27.909 kbps
Subtitle: Danish / 28.552 kbps
Subtitle: Finnish / 27.870 kbps
Subtitle: Icelandic / 28.977 kbps
Subtitle: Norwegian / 29.529 kbps
Subtitle: Serbian / 29.192 kbps
Subtitle: Slovenian / 24.806 kbps
Subtitle: Swedish / 27.757 kbps
Subtitle: Turkish / 31.745 kbps
Subtitle: English / 65.611 kbps
Subtitle: German / 67.359 kbps

